  0
SECTION
  2
HEADER
  9
$ANGBASE
  50
0.0
  9
$ANGDIR
  70
1
  9
$MEASUREMENT
  70
1
  0
ENDSEC
  0
SECTION
  2
TABLES
  0
TABLE
  2
LTYPE
  70
4
  0
LTYPE
  5
40F
  2
CONTINUOUS
  70
0
  3
Solid line
  72
65
  73
0
  40
0.0
  0
LTYPE
  5
410
  2
DASHDOT
 70
0
  3
Dash Dot ____ _ ____ _
 72
65
 73
4
 40
2.0
 49
1.25
 49
-0.25
 49
0.25
 49
-0.25
  0
LTYPE
  5
411
  2
DASHED
 70
0
  3
Dashed __ __ __ __ __
 72
65
 73
2
 40
0.75
 49
0.5
 49
-0.25
  0
LTYPE
  5
43B
  2
DOTTED
 70
0
  3
Dotted .  .  .  .
 72
65
 73
2
 40
0.2
 49
0.0
 49
-0.2
  0
ENDTAB
  0
TABLE
  2
STYLE
  70
4
  0
STYLE
  2
KICAD
  70
0
  40
0
  41
1
  42
1
  50
0
  71
0
  3
isocp.shx
  0
STYLE
  2
KICADB
  70
0
  40
0
  41
1
  42
1
  50
0
  71
0
  3
isocp.shx
  0
STYLE
  2
KICADI
  70
0
  40
0
  41
1
  42
1
  50
15
  71
0
  3
isocp.shx
  0
STYLE
  2
KICADBI
  70
0
  40
0
  41
1
  42
1
  50
15
  71
0
  3
isocp.shx
  0
ENDTAB
  0
TABLE
  2
LAYER
  70
1
  0
LAYER
  2
BLACK
  70
0
  62
7
  6
CONTINUOUS
  0
ENDTAB
  0
ENDSEC
  0
SECTION
  2
ENTITIES
0
LINE
8
BLACK
6
CONTINUOUS
10
100.3895669999999996
20
-107.3969029999999947
11
100.4030970000000025
21
-107.4104329999999976
0
LINE
8
BLACK
6
CONTINUOUS
10
100.4030970000000025
20
-107.4104329999999976
11
100.4050000000000011
21
-107.4200000000000017
0
LINE
8
BLACK
6
CONTINUOUS
10
100.4050000000000011
20
-107.4200000000000017
11
100.4050000000000011
21
-108.4699999999999989
0
LINE
8
BLACK
6
CONTINUOUS
10
100.4050000000000011
20
-108.4699999999999989
11
100.4030970000000025
21
-108.4795669999999888
0
LINE
8
BLACK
6
CONTINUOUS
10
100.4030970000000025
20
-108.4795669999999888
11
100.3895669999999996
21
-108.4930969999999917
0
LINE
8
BLACK
6
CONTINUOUS
10
100.3895669999999996
20
-108.4930969999999917
11
100.3799999999999955
21
-108.4949999999999903
0
LINE
8
BLACK
6
CONTINUOUS
10
100.3799999999999955
20
-108.4949999999999903
11
97.1599999999999966
21
-108.4949999999999903
0
LINE
8
BLACK
6
CONTINUOUS
10
97.1599999999999966
20
-108.4949999999999903
11
97.1504329999999925
21
-108.4930969999999917
0
LINE
8
BLACK
6
CONTINUOUS
10
97.1504329999999925
20
-108.4930969999999917
11
97.1369029999999896
21
-108.4795669999999888
0
LINE
8
BLACK
6
CONTINUOUS
10
97.1369029999999896
20
-108.4795669999999888
11
97.1349999999999909
21
-108.4699999999999989
0
LINE
8
BLACK
6
CONTINUOUS
10
97.1349999999999909
20
-108.4699999999999989
11
97.1349999999999909
21
-107.4200000000000017
0
LINE
8
BLACK
6
CONTINUOUS
10
97.1349999999999909
20
-107.4200000000000017
11
97.1369029999999896
21
-107.4104329999999976
0
LINE
8
BLACK
6
CONTINUOUS
10
97.1369029999999896
20
-107.4104329999999976
11
97.1504329999999925
21
-107.3969029999999947
0
LINE
8
BLACK
6
CONTINUOUS
10
97.1504329999999925
20
-107.3969029999999947
11
97.1599999999999966
21
-107.394999999999996
0
LINE
8
BLACK
6
CONTINUOUS
10
97.1599999999999966
20
-107.394999999999996
11
100.3799999999999955
21
-107.394999999999996
0
LINE
8
BLACK
6
CONTINUOUS
10
100.3799999999999955
20
-107.394999999999996
11
100.3895669999999996
21
-107.3969029999999947
0
LINE
8
BLACK
6
CONTINUOUS
10
97.1850000000000023
20
-107.4449999999999932
11
97.1850000000000023
21
-108.4449999999999932
0
LINE
8
BLACK
6
CONTINUOUS
10
97.1850000000000023
20
-108.4449999999999932
11
100.3549999999999898
21
-108.4449999999999932
0
LINE
8
BLACK
6
CONTINUOUS
10
100.3549999999999898
20
-108.4449999999999932
11
100.3549999999999898
21
-107.4449999999999932
0
LINE
8
BLACK
6
CONTINUOUS
10
100.3549999999999898
20
-107.4449999999999932
11
97.1850000000000023
21
-107.4449999999999932
0
LINE
8
BLACK
6
CONTINUOUS
10
94.4795669999999888
20
-102.9369030000000009
11
94.4930969999999917
21
-102.9504329999999896
0
LINE
8
BLACK
6
CONTINUOUS
10
94.4930969999999917
20
-102.9504329999999896
11
94.4949999999999903
21
-102.9599999999999937
0
LINE
8
BLACK
6
CONTINUOUS
10
94.4949999999999903
20
-102.9599999999999937
11
94.4949999999999903
21
-106.1799999999999926
0
LINE
8
BLACK
6
CONTINUOUS
10
94.4949999999999903
20
-106.1799999999999926
11
94.4930969999999917
21
-106.1895669999999967
0
LINE
8
BLACK
6
CONTINUOUS
10
94.4930969999999917
20
-106.1895669999999967
11
94.4795669999999888
21
-106.2030969999999996
0
LINE
8
BLACK
6
CONTINUOUS
10
94.4795669999999888
20
-106.2030969999999996
11
94.4699999999999989
21
-106.2049999999999983
0
LINE
8
BLACK
6
CONTINUOUS
10
94.4699999999999989
20
-106.2049999999999983
11
93.4699999999999989
21
-106.2049999999999983
0
LINE
8
BLACK
6
CONTINUOUS
10
93.4699999999999989
20
-106.2049999999999983
11
93.4604329999999948
21
-106.2030969999999996
0
LINE
8
BLACK
6
CONTINUOUS
10
93.4604329999999948
20
-106.2030969999999996
11
93.4469029999999918
21
-106.1895669999999967
0
LINE
8
BLACK
6
CONTINUOUS
10
93.4469029999999918
20
-106.1895669999999967
11
93.4449999999999932
21
-106.1799999999999926
0
LINE
8
BLACK
6
CONTINUOUS
10
93.4449999999999932
20
-106.1799999999999926
11
93.4449999999999932
21
-102.9599999999999937
0
LINE
8
BLACK
6
CONTINUOUS
10
93.4449999999999932
20
-102.9599999999999937
11
93.4469029999999918
21
-102.9504329999999896
0
LINE
8
BLACK
6
CONTINUOUS
10
93.4469029999999918
20
-102.9504329999999896
11
93.4604329999999948
21
-102.9369030000000009
0
LINE
8
BLACK
6
CONTINUOUS
10
93.4604329999999948
20
-102.9369030000000009
11
93.4699999999999989
21
-102.9350000000000023
0
LINE
8
BLACK
6
CONTINUOUS
10
93.4699999999999989
20
-102.9350000000000023
11
94.4699999999999989
21
-102.9350000000000023
0
LINE
8
BLACK
6
CONTINUOUS
10
94.4699999999999989
20
-102.9350000000000023
11
94.4795669999999888
21
-102.9369030000000009
0
LINE
8
BLACK
6
CONTINUOUS
10
93.4949999999999903
20
-102.9849999999999994
11
93.4949999999999903
21
-106.1550000000000011
0
LINE
8
BLACK
6
CONTINUOUS
10
93.4949999999999903
20
-106.1550000000000011
11
94.4449999999999932
21
-106.1550000000000011
0
LINE
8
BLACK
6
CONTINUOUS
10
94.4449999999999932
20
-106.1550000000000011
11
94.4449999999999932
21
-102.9849999999999994
0
LINE
8
BLACK
6
CONTINUOUS
10
94.4449999999999932
20
-102.9849999999999994
11
93.4949999999999903
21
-102.9849999999999994
0
LINE
8
BLACK
6
CONTINUOUS
10
100.5795669999999973
20
-101.0969029999999975
11
100.5930970000000002
21
-101.1104330000000004
0
LINE
8
BLACK
6
CONTINUOUS
10
100.5930970000000002
20
-101.1104330000000004
11
100.5949999999999989
21
-101.1199999999999903
0
LINE
8
BLACK
6
CONTINUOUS
10
100.5949999999999989
20
-101.1199999999999903
11
100.5949999999999989
21
-102.1700000000000017
0
LINE
8
BLACK
6
CONTINUOUS
10
100.5949999999999989
20
-102.1700000000000017
11
100.5930970000000002
21
-102.1795669999999916
0
LINE
8
BLACK
6
CONTINUOUS
10
100.5930970000000002
20
-102.1795669999999916
11
100.5795669999999973
21
-102.1930969999999945
0
LINE
8
BLACK
6
CONTINUOUS
10
100.5795669999999973
20
-102.1930969999999945
11
100.5699999999999932
21
-102.1949999999999932
0
LINE
8
BLACK
6
CONTINUOUS
10
100.5699999999999932
20
-102.1949999999999932
11
96.9200000000000017
21
-102.1949999999999932
0
LINE
8
BLACK
6
CONTINUOUS
10
96.9200000000000017
20
-102.1949999999999932
11
96.9104329999999976
21
-102.1930969999999945
0
LINE
8
BLACK
6
CONTINUOUS
10
96.9104329999999976
20
-102.1930969999999945
11
96.8969029999999947
21
-102.1795669999999916
0
LINE
8
BLACK
6
CONTINUOUS
10
96.8969029999999947
20
-102.1795669999999916
11
96.894999999999996
21
-102.1700000000000017
0
LINE
8
BLACK
6
CONTINUOUS
10
96.894999999999996
20
-102.1700000000000017
11
96.894999999999996
21
-101.1199999999999903
0
LINE
8
BLACK
6
CONTINUOUS
10
96.894999999999996
20
-101.1199999999999903
11
96.8969029999999947
21
-101.1104330000000004
0
LINE
8
BLACK
6
CONTINUOUS
10
96.8969029999999947
20
-101.1104330000000004
11
96.9104329999999976
21
-101.0969029999999975
0
LINE
8
BLACK
6
CONTINUOUS
10
96.9104329999999976
20
-101.0969029999999975
11
96.9200000000000017
21
-101.0949999999999989
0
LINE
8
BLACK
6
CONTINUOUS
10
96.9200000000000017
20
-101.0949999999999989
11
100.5699999999999932
21
-101.0949999999999989
0
LINE
8
BLACK
6
CONTINUOUS
10
100.5699999999999932
20
-101.0949999999999989
11
100.5795669999999973
21
-101.0969029999999975
0
LINE
8
BLACK
6
CONTINUOUS
10
96.9449999999999932
20
-101.144999999999996
11
96.9449999999999932
21
-102.144999999999996
0
LINE
8
BLACK
6
CONTINUOUS
10
96.9449999999999932
20
-102.144999999999996
11
100.5450000000000017
21
-102.144999999999996
0
LINE
8
BLACK
6
CONTINUOUS
10
100.5450000000000017
20
-102.144999999999996
11
100.5450000000000017
21
-101.144999999999996
0
LINE
8
BLACK
6
CONTINUOUS
10
100.5450000000000017
20
-101.144999999999996
11
96.9449999999999932
21
-101.144999999999996
0
LINE
8
BLACK
6
CONTINUOUS
10
133.9600149999999985
20
-53.625
11
133.9695109999999829
21
-53.6268949999999975
0
LINE
8
BLACK
6
CONTINUOUS
10
133.9695109999999829
20
-53.6268949999999975
11
133.9695480000000032
21
-53.6268949999999975
0
LINE
8
BLACK
6
CONTINUOUS
10
133.9695480000000032
20
-53.6268949999999975
11
133.9695569999999805
21
-53.6269039999999961
0
LINE
8
BLACK
6
CONTINUOUS
10
133.9695569999999805
20
-53.6269039999999961
11
133.9695810000000051
21
-53.6269089999999977
0
LINE
8
BLACK
6
CONTINUOUS
10
133.9695810000000051
20
-53.6269089999999977
11
133.9763279999999952
21
-53.633663999999996
0
LINE
8
BLACK
6
CONTINUOUS
10
133.9763279999999952
20
-53.633663999999996
11
133.9830890000000068
21
-53.6404139999999998
0
LINE
8
BLACK
6
CONTINUOUS
10
133.9830890000000068
20
-53.6404139999999998
11
133.9830929999999967
21
-53.6404369999999986
0
LINE
8
BLACK
6
CONTINUOUS
10
133.9830929999999967
20
-53.6404369999999986
11
133.9831029999999998
21
-53.6404469999999947
0
LINE
8
BLACK
6
CONTINUOUS
10
133.9831029999999998
20
-53.6404469999999947
11
133.9831020000000024
21
-53.6404829999999961
0
LINE
8
BLACK
6
CONTINUOUS
10
133.9831020000000024
20
-53.6404829999999961
11
133.9849999999999852
21
-53.6499789999999948
0
LINE
8
BLACK
6
CONTINUOUS
10
133.9849999999999852
20
-53.6499789999999948
11
134.0199999999999818
21
-96.1799789999999888
0
LINE
8
BLACK
6
CONTINUOUS
10
134.0199999999999818
20
-96.1799789999999888
11
134.0181049999999914
21
-96.189548000000002
0
LINE
8
BLACK
6
CONTINUOUS
10
134.0181049999999914
20
-96.189548000000002
11
134.0180969999999832
21
-96.1895559999999961
0
LINE
8
BLACK
6
CONTINUOUS
10
134.0180969999999832
20
-96.1895559999999961
11
134.0180969999999832
21
-96.1895669999999967
0
LINE
8
BLACK
6
CONTINUOUS
10
134.0180969999999832
20
-96.1895669999999967
11
134.0113450000000057
21
-96.1963179999999909
0
LINE
8
BLACK
6
CONTINUOUS
10
134.0113450000000057
20
-96.1963179999999909
11
134.0045859999999891
21
-96.2030889999999914
0
LINE
8
BLACK
6
CONTINUOUS
10
134.0045859999999891
20
-96.2030889999999914
11
134.004573999999991
21
-96.2030889999999914
0
LINE
8
BLACK
6
CONTINUOUS
10
134.004573999999991
20
-96.2030889999999914
11
134.0045669999999802
21
-96.2030969999999996
0
LINE
8
BLACK
6
CONTINUOUS
10
134.0045669999999802
20
-96.2030969999999996
11
133.9950000000000045
21
-96.2049999999999983
0
LINE
8
BLACK
6
CONTINUOUS
10
133.9950000000000045
20
-96.2049999999999983
11
129.4249999999999829
21
-96.2049999999999983
0
LINE
8
BLACK
6
CONTINUOUS
10
129.4249999999999829
20
-96.2049999999999983
11
129.4156409999999937
21
-96.2031379999999956
0
LINE
8
BLACK
6
CONTINUOUS
10
129.4156409999999937
20
-96.2031379999999956
11
129.4155340000000081
21
-96.2031389999999931
0
LINE
8
BLACK
6
CONTINUOUS
10
129.4155340000000081
20
-96.2031389999999931
11
129.4155059999999935
21
-96.2031109999999927
0
LINE
8
BLACK
6
CONTINUOUS
10
129.4155059999999935
20
-96.2031109999999927
11
129.4154330000000073
21
-96.2030969999999996
0
LINE
8
BLACK
6
CONTINUOUS
10
129.4154330000000073
20
-96.2030969999999996
11
129.4087389999999971
21
-96.1964029999999894
0
LINE
8
BLACK
6
CONTINUOUS
10
129.4087389999999971
20
-96.1964029999999894
11
129.4019449999999836
21
-96.1896679999999975
0
LINE
8
BLACK
6
CONTINUOUS
10
129.4019449999999836
20
-96.1896679999999975
11
129.4019289999999955
21
-96.1895930000000021
0
LINE
8
BLACK
6
CONTINUOUS
10
129.4019289999999955
20
-96.1895930000000021
11
129.4019030000000043
21
-96.1895669999999967
0
LINE
8
BLACK
6
CONTINUOUS
10
129.4019030000000043
20
-96.1895669999999967
11
129.4019030000000043
21
-96.1894609999999943
0
LINE
8
BLACK
6
CONTINUOUS
10
129.4019030000000043
20
-96.1894609999999943
11
129.4000000000000057
21
-96.1801099999999991
0
LINE
8
BLACK
6
CONTINUOUS
10
129.4000000000000057
20
-96.1801099999999991
11
129.3851089999999999
21
-92.7849999999999966
0
LINE
8
BLACK
6
CONTINUOUS
10
129.3851089999999999
20
-92.7849999999999966
11
109.0949849999999941
21
-92.7849999999999966
0
LINE
8
BLACK
6
CONTINUOUS
10
109.0949849999999941
20
-92.7849999999999966
11
109.0849999999999937
21
-109.090014999999994
0
LINE
8
BLACK
6
CONTINUOUS
10
109.0849999999999937
20
-109.090014999999994
11
109.0830969999999951
21
-109.0995489999999961
0
LINE
8
BLACK
6
CONTINUOUS
10
109.0830969999999951
20
-109.0995489999999961
11
109.0830969999999951
21
-109.0995669999999933
0
LINE
8
BLACK
6
CONTINUOUS
10
109.0830969999999951
20
-109.0995669999999933
11
109.0830919999999935
21
-109.0995709999999974
0
LINE
8
BLACK
6
CONTINUOUS
10
109.0830919999999935
20
-109.0995709999999974
11
109.083090999999996
21
-109.0995810000000006
0
LINE
8
BLACK
6
CONTINUOUS
10
109.083090999999996
20
-109.0995810000000006
11
109.0763219999999905
21
-109.1063419999999979
0
LINE
8
BLACK
6
CONTINUOUS
10
109.0763219999999905
20
-109.1063419999999979
11
109.0695669999999922
21
-109.1130969999999962
0
LINE
8
BLACK
6
CONTINUOUS
10
109.0695669999999922
20
-109.1130969999999962
11
109.069556999999989
21
-109.1130979999999937
0
LINE
8
BLACK
6
CONTINUOUS
10
109.069556999999989
20
-109.1130979999999937
11
109.0695529999999991
21
-109.1131029999999953
0
LINE
8
BLACK
6
CONTINUOUS
10
109.0695529999999991
20
-109.1131029999999953
11
109.0695359999999994
21
-109.1131019999999978
0
LINE
8
BLACK
6
CONTINUOUS
10
109.0695359999999994
20
-109.1131019999999978
11
109.0599999999999881
21
-109.1149999999999949
0
LINE
8
BLACK
6
CONTINUOUS
10
109.0599999999999881
20
-109.1149999999999949
11
89.019999999999996
21
-109.1149999999999949
0
LINE
8
BLACK
6
CONTINUOUS
10
89.019999999999996
20
-109.1149999999999949
11
89.0104329999999919
21
-109.1130969999999962
0
LINE
8
BLACK
6
CONTINUOUS
10
89.0104329999999919
20
-109.1130969999999962
11
89.0104259999999954
21
-109.1130899999999997
0
LINE
8
BLACK
6
CONTINUOUS
10
89.0104259999999954
20
-109.1130899999999997
11
89.0104149999999947
21
-109.1130899999999997
0
LINE
8
BLACK
6
CONTINUOUS
10
89.0104149999999947
20
-109.1130899999999997
11
89.0036549999999949
21
-109.1063189999999992
0
LINE
8
BLACK
6
CONTINUOUS
10
89.0036549999999949
20
-109.1063189999999992
11
88.996902999999989
21
-109.0995669999999933
0
LINE
8
BLACK
6
CONTINUOUS
10
88.996902999999989
20
-109.0995669999999933
11
88.996902999999989
21
-109.0995559999999927
0
LINE
8
BLACK
6
CONTINUOUS
10
88.996902999999989
20
-109.0995559999999927
11
88.9968959999999925
21
-109.0995489999999961
0
LINE
8
BLACK
6
CONTINUOUS
10
88.9968959999999925
20
-109.0995489999999961
11
88.9949999999999903
21
-109.0899809999999945
0
LINE
8
BLACK
6
CONTINUOUS
10
88.9949999999999903
20
-109.0899809999999945
11
89.0249999999999915
21
-70.1099799999999931
0
LINE
8
BLACK
6
CONTINUOUS
10
89.0249999999999915
20
-70.1099799999999931
11
89.0268799999999914
21
-70.1005639999999914
0
LINE
8
BLACK
6
CONTINUOUS
10
89.0268799999999914
20
-70.1005639999999914
11
89.0268799999999914
21
-70.1004889999999961
0
LINE
8
BLACK
6
CONTINUOUS
10
89.0268799999999914
20
-70.1004889999999961
11
89.0268990000000002
21
-70.1004690000000039
0
LINE
8
BLACK
6
CONTINUOUS
10
89.0268990000000002
20
-70.1004690000000039
11
89.0269100000000009
21
-70.1004149999999981
0
LINE
8
BLACK
6
CONTINUOUS
10
89.0269100000000009
20
-70.1004149999999981
11
89.0337179999999933
21
-70.0936159999999973
0
LINE
8
BLACK
6
CONTINUOUS
10
89.0337179999999933
20
-70.0936159999999973
11
89.0403769999999923
21
-70.0869259999999912
0
LINE
8
BLACK
6
CONTINUOUS
10
89.0403769999999923
20
-70.0869259999999912
11
89.0404300000000006
21
-70.0869149999999905
0
LINE
8
BLACK
6
CONTINUOUS
10
89.0404300000000006
20
-70.0869149999999905
11
89.0404509999999902
21
-70.0868949999999984
0
LINE
8
BLACK
6
CONTINUOUS
10
89.0404509999999902
20
-70.0868949999999984
11
89.0405299999999897
21
-70.0868949999999984
0
LINE
8
BLACK
6
CONTINUOUS
10
89.0405299999999897
20
-70.0868949999999984
11
89.0499399999999923
21
-70.0849999999999937
0
LINE
8
BLACK
6
CONTINUOUS
10
89.0499399999999923
20
-70.0849999999999937
11
101.4449999999999932
21
-70.0550599999999974
0
LINE
8
BLACK
6
CONTINUOUS
10
101.4449999999999932
20
-70.0550599999999974
11
101.4449999999999932
21
-53.6299999999999955
0
LINE
8
BLACK
6
CONTINUOUS
10
101.4449999999999932
20
-53.6299999999999955
11
101.4469029999999918
21
-53.6204329999999985
0
LINE
8
BLACK
6
CONTINUOUS
10
101.4469029999999918
20
-53.6204329999999985
11
101.4469079999999934
21
-53.6204269999999994
0
LINE
8
BLACK
6
CONTINUOUS
10
101.4469079999999934
20
-53.6204269999999994
11
101.4469089999999909
21
-53.6204189999999983
0
LINE
8
BLACK
6
CONTINUOUS
10
101.4469089999999909
20
-53.6204189999999983
11
101.4536779999999965
21
-53.6136580000000009
0
LINE
8
BLACK
6
CONTINUOUS
10
101.4536779999999965
20
-53.6136580000000009
11
101.4604329999999948
21
-53.6069029999999955
0
LINE
8
BLACK
6
CONTINUOUS
10
101.4604329999999948
20
-53.6069029999999955
11
101.4604409999999888
21
-53.6069029999999955
0
LINE
8
BLACK
6
CONTINUOUS
10
101.4604409999999888
20
-53.6069029999999955
11
101.460447000000002
21
-53.6068969999999965
0
LINE
8
BLACK
6
CONTINUOUS
10
101.460447000000002
20
-53.6068969999999965
11
101.4700149999999894
21
-53.6049999999999969
0
LINE
8
BLACK
6
CONTINUOUS
10
101.4700149999999894
20
-53.6049999999999969
11
133.9600149999999985
21
-53.625
0
LINE
8
BLACK
6
CONTINUOUS
10
101.4949999999999903
20
-70.0799999999999983
11
101.493118999999993
21
-70.0894519999999943
0
LINE
8
BLACK
6
CONTINUOUS
10
101.493118999999993
20
-70.0894519999999943
11
101.4931199999999905
21
-70.0895110000000017
0
LINE
8
BLACK
6
CONTINUOUS
10
101.4931199999999905
20
-70.0895110000000017
11
101.4931049999999999
21
-70.0895249999999947
0
LINE
8
BLACK
6
CONTINUOUS
10
101.4931049999999999
20
-70.0895249999999947
11
101.4930969999999917
21
-70.0895670000000024
0
LINE
8
BLACK
6
CONTINUOUS
10
101.4930969999999917
20
-70.0895670000000024
11
101.4863709999999912
21
-70.0962919999999912
0
LINE
8
BLACK
6
CONTINUOUS
10
101.4863709999999912
20
-70.0962919999999912
11
101.4796229999999895
21
-70.1030739999999923
0
LINE
8
BLACK
6
CONTINUOUS
10
101.4796229999999895
20
-70.1030739999999923
11
101.479580999999996
21
-70.1030820000000006
0
LINE
8
BLACK
6
CONTINUOUS
10
101.479580999999996
20
-70.1030820000000006
11
101.4795669999999888
21
-70.1030969999999911
0
LINE
8
BLACK
6
CONTINUOUS
10
101.4795669999999888
20
-70.1030969999999911
11
101.4795089999999931
21
-70.1030969999999911
0
LINE
8
BLACK
6
CONTINUOUS
10
101.4795089999999931
20
-70.1030969999999911
11
101.4700599999999895
21
-70.1049999999999898
0
LINE
8
BLACK
6
CONTINUOUS
10
101.4700599999999895
20
-70.1049999999999898
11
89.0749799999999965
21
-70.1349390000000028
0
LINE
8
BLACK
6
CONTINUOUS
10
89.0749799999999965
20
-70.1349390000000028
11
89.0450189999999964
21
-109.0649999999999977
0
LINE
8
BLACK
6
CONTINUOUS
10
89.0450189999999964
20
-109.0649999999999977
11
109.0350150000000014
21
-109.0649999999999977
0
LINE
8
BLACK
6
CONTINUOUS
10
109.0350150000000014
20
-109.0649999999999977
11
109.0450000000000017
21
-92.7599850000000004
0
LINE
8
BLACK
6
CONTINUOUS
10
109.0450000000000017
20
-92.7599850000000004
11
109.0469030000000004
21
-92.7504469999999941
0
LINE
8
BLACK
6
CONTINUOUS
10
109.0469030000000004
20
-92.7504469999999941
11
109.0469030000000004
21
-92.750433000000001
0
LINE
8
BLACK
6
CONTINUOUS
10
109.0469030000000004
20
-92.750433000000001
11
109.0469069999999903
21
-92.7504279999999994
0
LINE
8
BLACK
6
CONTINUOUS
10
109.0469069999999903
20
-92.7504279999999994
11
109.0469089999999994
21
-92.7504189999999937
0
LINE
8
BLACK
6
CONTINUOUS
10
109.0469089999999994
20
-92.7504189999999937
11
109.0536779999999908
21
-92.7436579999999964
0
LINE
8
BLACK
6
CONTINUOUS
10
109.0536779999999908
20
-92.7436579999999964
11
109.0604329999999891
21
-92.7369029999999981
0
LINE
8
BLACK
6
CONTINUOUS
10
109.0604329999999891
20
-92.7369029999999981
11
109.0604419999999948
21
-92.7369009999999889
0
LINE
8
BLACK
6
CONTINUOUS
10
109.0604419999999948
20
-92.7369009999999889
11
109.0604469999999964
21
-92.736896999999999
0
LINE
8
BLACK
6
CONTINUOUS
10
109.0604469999999964
20
-92.736896999999999
11
109.0604629999999986
21
-92.736896999999999
0
LINE
8
BLACK
6
CONTINUOUS
10
109.0604629999999986
20
-92.736896999999999
11
109.0699999999999932
21
-92.7349999999999994
0
LINE
8
BLACK
6
CONTINUOUS
10
109.0699999999999932
20
-92.7349999999999994
11
129.4099999999999966
21
-92.7349999999999994
0
LINE
8
BLACK
6
CONTINUOUS
10
129.4099999999999966
20
-92.7349999999999994
11
129.4193579999999884
21
-92.7368609999999904
0
LINE
8
BLACK
6
CONTINUOUS
10
129.4193579999999884
20
-92.7368609999999904
11
129.4194659999999999
21
-92.7368609999999904
0
LINE
8
BLACK
6
CONTINUOUS
10
129.4194659999999999
20
-92.7368609999999904
11
129.4194929999999886
21
-92.7368879999999933
0
LINE
8
BLACK
6
CONTINUOUS
10
129.4194929999999886
20
-92.7368879999999933
11
129.4195670000000007
21
-92.7369029999999981
0
LINE
8
BLACK
6
CONTINUOUS
10
129.4195670000000007
20
-92.7369029999999981
11
129.426259999999985
21
-92.7435959999999966
0
LINE
8
BLACK
6
CONTINUOUS
10
129.426259999999985
20
-92.7435959999999966
11
129.433054999999996
21
-92.7503320000000002
0
LINE
8
BLACK
6
CONTINUOUS
10
129.433054999999996
20
-92.7503320000000002
11
129.4330699999999865
21
-92.7504059999999981
0
LINE
8
BLACK
6
CONTINUOUS
10
129.4330699999999865
20
-92.7504059999999981
11
129.4330970000000036
21
-92.750433000000001
0
LINE
8
BLACK
6
CONTINUOUS
10
129.4330970000000036
20
-92.750433000000001
11
129.4330970000000036
21
-92.7505379999999917
0
LINE
8
BLACK
6
CONTINUOUS
10
129.4330970000000036
20
-92.7505379999999917
11
129.4350000000000023
21
-92.7598899999999986
0
LINE
8
BLACK
6
CONTINUOUS
10
129.4350000000000023
20
-92.7598899999999986
11
129.449891000000008
21
-96.1550000000000011
0
LINE
8
BLACK
6
CONTINUOUS
10
129.449891000000008
20
-96.1550000000000011
11
133.969978999999995
21
-96.1550000000000011
0
LINE
8
BLACK
6
CONTINUOUS
10
133.969978999999995
20
-96.1550000000000011
11
133.9350199999999802
21
-53.6749839999999949
0
LINE
8
BLACK
6
CONTINUOUS
10
133.9350199999999802
20
-53.6749839999999949
11
101.4949999999999903
21
-53.6550149999999988
0
LINE
8
BLACK
6
CONTINUOUS
10
101.4949999999999903
20
-53.6550149999999988
11
101.4949999999999903
21
-70.0799999999999983
  0
ENDSEC
  0
EOF
