M48
; DRILL file {KiCad 8.0.5} date 2024-10-23T08:58:28-0500
; FORMAT={-:-/ absolute / metric / decimal}
; #@! TF.CreationDate,2024-10-23T08:58:28-05:00
; #@! TF.GenerationSoftware,Kicad,Pcbnew,8.0.5
; #@! TF.FileFunction,Plated,1,2,PTH
FMAT,2
METRIC
; #@! TA.AperFunction,Plated,PTH,ComponentDrill
T1C0.600
; #@! TA.AperFunction,Plated,PTH,ViaDrill
T2C0.800
; #@! TA.AperFunction,Plated,PTH,ComponentDrill
T3C1.000
; #@! TA.AperFunction,Plated,PTH,ComponentDrill
T4C1.190
%
G90
G05
T1
X107.61Y-63.45
X107.61Y-65.99
X107.61Y-68.53
X107.61Y-71.07
X107.61Y-73.61
X107.61Y-76.15
X107.61Y-78.69
X107.61Y-81.23
X107.61Y-83.77
X107.61Y-86.31
X107.61Y-88.85
X107.61Y-91.39
X107.61Y-93.93
X130.47Y-63.45
X130.47Y-65.99
X130.47Y-68.53
X130.47Y-71.07
X130.47Y-73.61
X130.47Y-76.15
X130.47Y-78.69
X130.47Y-81.23
X130.47Y-83.77
X130.47Y-86.31
X130.47Y-88.85
X130.47Y-91.39
X130.47Y-93.93
T2
X93.69Y-78.24
X97.61Y-80.34
X99.42Y-87.41
X103.387Y-80.907
T3
X93.24Y-91.76
X93.24Y-94.3
X93.24Y-96.84
X100.96Y-92.235
X100.96Y-94.775
X100.96Y-97.315
T4
X91.23Y-84.24
X93.77Y-84.24
X95.79Y-73.74
X96.31Y-84.24
X98.33Y-73.74
X98.85Y-84.24
X100.87Y-73.74
X101.39Y-84.24
X103.41Y-73.74
X103.93Y-84.24
T3
G00X93.95Y-103.45
M15
G01X93.95Y-105.65
M16
G05
G00X97.45Y-101.65
M15
G01X100.05Y-101.65
M16
G05
G00X97.65Y-107.95
M15
G01X99.85Y-107.95
M16
G05
M30
