M48
; DRILL file {KiCad 8.0.5} date 2024-10-23T08:55:44-0500
; FORMAT={-:-/ absolute / metric / decimal}
; #@! TF.CreationDate,2024-10-23T08:55:44-05:00
; #@! TF.GenerationSoftware,Kicad,Pcbnew,8.0.5
; #@! TF.FileFunction,Plated,1,2,PTH
FMAT,2
METRIC
; #@! TA.AperFunction,Plated,PTH,ComponentDrill
T1C1.020
; #@! TA.AperFunction,Plated,PTH,ComponentDrill
T2C1.190
%
G90
G05
T1
X165.65Y-89.76
X165.65Y-92.3
X165.65Y-94.84
X165.65Y-97.38
X165.65Y-99.92
X165.65Y-102.46
X165.65Y-105.0
X165.65Y-107.54
X165.65Y-110.08
X165.65Y-112.62
X165.65Y-115.16
X165.65Y-117.7
X165.65Y-120.24
X165.65Y-122.78
X165.65Y-125.32
X191.05Y-89.76
X191.05Y-92.3
X191.05Y-94.84
X191.05Y-97.38
X191.05Y-99.92
X191.05Y-102.46
X191.05Y-105.0
X191.05Y-107.54
X191.05Y-110.08
X191.05Y-112.62
X191.05Y-115.16
X191.05Y-117.7
X191.05Y-120.24
X191.05Y-122.78
X191.05Y-125.32
T2
X198.65Y-93.6
X198.65Y-96.14
X198.65Y-98.68
X198.65Y-101.22
X198.65Y-103.76
X198.65Y-106.3
M30
